<svg viewBox="0 0 14 18" fill="none" xmlns="http://www.w3.org/2000/svg"><g clip-path="url(#clip0)" fill="#2ED47A"><path d="M4.958 11.667a.875.875 0 01-.875-.875V3.5H1.021a.437.437 0 00-.438.438v9.187a.875.875 0 00.875.875h7a.875.875 0 00.875-.875v-1.458H4.958zM11.375 2.625H14L11.375 0v2.625z"/><path d="M10.5 3.5V0H5.687a.438.438 0 00-.437.438v9.187a.875.875 0 00.875.875h7A.875.875 0 0014 9.625V3.5h-3.5z"/></g><defs><clipPath id="clip0"><path fill="#fff" d="M0 0h14v17.5H0z"/></clipPath></defs></svg>