<svg viewBox="0 0 31 17" fill="none" xmlns="http://www.w3.org/2000/svg"><path d="M.646 14.269H3.24a.645.645 0 100-1.292h-1.95V1.292h17.526v11.685h-5.194a.645.645 0 100 1.292h5.84a.645.645 0 00.646-.646V.646A.645.645 0 0019.463 0H.646A.645.645 0 000 .646v12.977c0 .357.289.646.646.646z" fill="#1A051D"/><path d="M7.134 14.269H9.73a.645.645 0 100-1.292H7.134a.645.645 0 100 1.292zM22.059 14.269h2.595a.645.645 0 100-1.292h-1.95V3.963l4.954.556c.91.101 1.604.839 1.652 1.754l.362 6.704h-1.125a.645.645 0 100 1.292h1.807a.645.645 0 00.645-.68l-.398-7.385a3.145 3.145 0 00-2.8-2.97l-5.67-.635a.646.646 0 00-.718.642v10.382c0 .357.289.646.646.646z" fill="#1A051D"/><path d="M19.461 14.27h2.596a.645.645 0 100-1.292h-2.596a.645.645 0 100 1.291zM26.6 16.216a2.595 2.595 0 002.593-2.593 2.595 2.595 0 00-2.592-2.592 2.595 2.595 0 00-2.593 2.592 2.596 2.596 0 002.593 2.593zm0-3.894a1.302 1.302 0 010 2.602 1.302 1.302 0 010-2.602zM11.677 16.216a2.595 2.595 0 002.592-2.593 2.595 2.595 0 00-2.592-2.592 2.595 2.595 0 00-2.593 2.592 2.596 2.596 0 002.593 2.593zm0-3.894a1.302 1.302 0 010 2.602 1.302 1.302 0 010-2.602zM5.187 16.216a2.596 2.596 0 002.593-2.593 2.595 2.595 0 00-2.593-2.592 2.595 2.595 0 00-2.592 2.592 2.595 2.595 0 002.592 2.593zm0-3.894a1.302 1.302 0 010 2.602 1.302 1.302 0 010-2.602z" fill="#1A051D"/></svg>