<svg viewBox="0 0 200 23" fill="none" xmlns="http://www.w3.org/2000/svg"><g clip-path="url(#clip0)"><path d="M7.01 21.857H0V.193h20.123v6.224H7.01v3.354h12.902v5.921H7.01v6.165zM30.064 21.857h-7.13V.192h11.994c2.75 0 4.894.271 6.526.755 3.294 1.002 4.593 3.052 4.593 6.349 0 2.96-1.33 4.678-4.29 5.62 3.051.725 4.018 2.386 4.018 5.982v1.39c0 .635.212 1.239.786 1.572h-7.644c-.575-.272-.725-.937-.725-1.448v-1.637c0-2.387-.877-3.083-3.778-3.083h-4.35v6.165zm0-11.574h4.864c2.266 0 3.777-.392 3.777-2.084v-.211c0-1.632-1.148-2.086-3.687-2.086h-4.954v4.381zM48.886 21.857V.193h20.91v5.65h-13.96v2.9h12.478v4.32H55.836v2.932h14.413v5.862H48.886zM86.534 21.857H79.1V6.537h-7.01V.193h21.696v6.344h-7.252v15.32zM110.191 14.937l-9.034-9.427v16.347h-3.626V.373h3.565l9.397 9.972 9.639-9.972h3.354v21.484h-3.625V5.48l-9.277 9.457h-.393zM189.153 21.857h-3.837L175.072.373h4.079l8.189 17.556L195.951.373H200l-10.847 21.484z" fill="#fff"/><path d="M163.309.096c-.821-.094-7.754-.754-11.134 3.301-1.487 1.783-1.723 4.07-1.95 6.278-.334 3.183-.612 5.93-4.096 7.737-1.559.809-2.973 1.478-4.494 1.478h-3.278a7.54 7.54 0 01-7.533-7.533v-.42a7.546 7.546 0 017.533-7.534h3.278a7.45 7.45 0 014.185 1.28c.021.018 2.095 1.69 2.764 3.556l.112.32c.016-.123.025-.246.027-.37.169-1.35.435-2.752 1.053-4.069a.637.637 0 01.106-.111l-.697-.839a10.78 10.78 0 00-7.553-3.078h-3.278a10.85 10.85 0 00-10.841 10.844v.421a10.85 10.85 0 0010.84 10.84h3.278c2.265 0 4.14-.874 6.015-1.849 5.068-2.627 5.508-6.906 5.863-10.334.192-1.873.359-3.49 1.2-4.5 1.976-2.37 6.639-2.338 8.279-2.124l.209.013a7.542 7.542 0 017.533 7.533v.421a7.538 7.538 0 01-7.526 7.539h-3.277a7.463 7.463 0 01-2.602-.468l-.052-.02a6.92 6.92 0 01-.515-.216l-.064.137.029-.154a8.339 8.339 0 01-.416-.215l-.141-.078c-.124-.072-.246-.149-.366-.223a9.386 9.386 0 01-.213-.146c-.045-.033-.089-.066-.155-.112a8.445 8.445 0 01-.464-.375l-.022-.02a7.474 7.474 0 01-.949-1l-.048-.062a.679.679 0 00-.071.155 11.083 11.083 0 01-1.63 2.686c.009.008-.048.033-.145.066l.037.038c.042.044.085.085.129.126l.111.104c.035.033.072.067.112.099l.061.057a12.323 12.323 0 00.706.604c.074.057.148.11.223.17.157.112.317.233.481.34l.103.07c.177.111.369.23.609.365l.111.06c.233.126.454.238.676.333.223.096.481.209.74.304l.03.011a10.818 10.818 0 003.713.658h3.278a10.853 10.853 0 0010.841-10.84v-.42c0-5.924-4.816-10.785-10.736-10.84" fill="#FF4048"/></g><defs><clipPath id="clip0"><path fill="#fff" d="M0 0h200v22.199H0z"/></clipPath></defs></svg>