<svg viewBox="0 0 36 36" fill="none" xmlns="http://www.w3.org/2000/svg"><path d="M36 18c0-9.941-8.059-18-18-18S0 8.059 0 18s8.059 18 18 18 18-8.059 18-18z" fill="#0C144A"/><path d="M15.736 14.227a4.227 4.227 0 01-.485-.792c.112.29.276.558.485.792z" fill="url(#paint0_linear)"/><path d="M15.736 14.227a4.227 4.227 0 01-.485-.792c.112.29.276.558.485.792z" fill="url(#paint1_linear)"/><path d="M21.287 7.912a5.936 5.936 0 011.825 1.77l-1.825-1.77z" fill="url(#paint2_linear)"/><path d="M23.112 9.681a5.938 5.938 0 00-1.825-1.769 4.483 4.483 0 00-5.055.664c-1.364 1.248-1.76 3.202-.98 4.858a2.543 2.543 0 01.535-2.677 2.734 2.734 0 012.704-.742 2.633 2.633 0 011.9 2.01.62.62 0 01.009.148v.078c.001.807.648 1.474 1.477 1.527.83.051 1.558-.53 1.668-1.33a4.137 4.137 0 00-.433-2.773v.007z" fill="url(#paint3_linear)"/><path d="M20.017 25.202a2.808 2.808 0 01-3.818-.045 2.569 2.569 0 01-.047-3.68l.049-.046c.078-.073.161-.14.247-.203a1.399 1.399 0 00.207-1.73 1.516 1.516 0 00-1.674-.655 4.295 4.295 0 00-2.098 1.724c-.213.37-.383.763-.505 1.173-.498 1.985.569 4.026 2.52 4.822 1.952.796 4.214.112 5.346-1.615-.07.09-.146.175-.227.256v-.001z" fill="url(#paint4_linear)"/><path d="M14.436 26.238c-1.663-.928-2.497-2.81-2.05-4.62-.77 2.646.534 5.445 3.09 6.63 2.556 1.186 5.62.412 7.257-1.833 1.636-2.244 1.367-5.307-.635-7.252l-.112-.103a6.134 6.134 0 00-1.027-.743L16.366 14.9a4.313 4.313 0 01-.635-.656 2.583 2.583 0 01-.485-.792c-.793-1.66-.405-3.624.965-4.882a4.482 4.482 0 015.076-.657c-2.749-1.702-6.394-.957-8.204 1.675-1.808 2.632-1.118 6.185 1.554 7.997l3.266 2.377 1.322.928c.277.164.53.36.757.586.464.484.722 1.12.72 1.783 0 1.39-.686 1.918-1.12 2.376-1.388 1.289-3.483 1.534-5.146.604z" fill="url(#paint5_linear)"/><path d="M17.932 7.611a4.342 4.342 0 00-2.694 2.325 4.137 4.137 0 00.013 3.498 2.546 2.546 0 01.724-2.845c.068-1.257.81-2.387 1.957-2.978z" fill="#AD4F09" opacity=".2"/><path d="M13.537 25.727a4.604 4.604 0 003.462 1.113c1.27-.115 2.425-.74 3.172-1.717-.718.81-1.888 1.12-2.948.782a3.936 3.936 0 01-3.686-.178z" fill="#AD4F09" opacity=".13"/><defs><linearGradient id="paint0_linear" x1="15.083" y1="13.831" x2="20.44" y2="13.831" gradientUnits="userSpaceOnUse"><stop stop-color="#FF9B3F"/><stop offset=".02" stop-color="#FE993F"/><stop offset=".59" stop-color="#DE5149"/><stop offset=".86" stop-color="#D2354D"/></linearGradient><linearGradient id="paint1_linear" x1="53.563" y1="58.146" x2="91.536" y2="58.146" gradientUnits="userSpaceOnUse"><stop stop-color="#FF9B3F"/><stop offset=".02" stop-color="#FE993F"/><stop offset=".59" stop-color="#DE5149"/><stop offset=".86" stop-color="#D2354D"/></linearGradient><linearGradient id="paint2_linear" x1="198.687" y1="47.871" x2="303.185" y2="47.871" gradientUnits="userSpaceOnUse"><stop stop-color="#FF9B3F"/><stop offset=".02" stop-color="#FE993F"/><stop offset=".59" stop-color="#DE5149"/><stop offset=".86" stop-color="#D2354D"/></linearGradient><linearGradient id="paint3_linear" x1="22.107" y1="14.302" x2="18.371" y2="7.422" gradientUnits="userSpaceOnUse"><stop stop-color="#FFB33F"/><stop offset=".2" stop-color="#FDA247"/><stop offset="1" stop-color="#F46268"/></linearGradient><linearGradient id="paint4_linear" x1="13.424" y1="19.663" x2="17.841" y2="26.835" gradientUnits="userSpaceOnUse"><stop stop-color="#FFBC3F"/><stop offset=".06" stop-color="#FEB442"/><stop offset=".48" stop-color="#F98857"/><stop offset=".81" stop-color="#F56C63"/><stop offset="1" stop-color="#F46268"/></linearGradient><linearGradient id="paint5_linear" x1="17.935" y1="28.804" x2="17.935" y2="6.997" gradientUnits="userSpaceOnUse"><stop stop-color="#F46068"/><stop offset=".03" stop-color="#F66B65"/><stop offset=".12" stop-color="#F9815F"/><stop offset=".22" stop-color="#FC925A"/><stop offset=".34" stop-color="#FE9D56"/><stop offset=".52" stop-color="#FFA455"/><stop offset="1" stop-color="#FFA654"/></linearGradient></defs></svg>